solid ASCII
  facet normal 8.035572e-01 -5.952276e-01 0.000000e+00
    outer loop
      vertex   0.000000e+00 0.000000e+00 1.000000e+01
      vertex   1.000000e+01 1.350000e+01 1.000000e+01
      vertex   0.000000e+00 0.000000e+00 1.350000e+01
    endloop
  endfacet
  facet normal 8.035572e-01 -5.952276e-01 0.000000e+00
    outer loop
      vertex   0.000000e+00 0.000000e+00 1.350000e+01
      vertex   1.000000e+01 1.350000e+01 1.000000e+01
      vertex   1.000000e+01 1.350000e+01 1.350000e+01
    endloop
  endfacet
  facet normal 0.000000e+00 0.000000e+00 1.000000e+00
    outer loop
      vertex   0.000000e+00 0.000000e+00 1.350000e+01
      vertex   1.000000e+01 1.350000e+01 1.350000e+01
      vertex   0.000000e+00 1.350000e+01 1.350000e+01
    endloop
  endfacet
  facet normal 0.000000e+00 0.000000e+00 1.000000e+00
    outer loop
      vertex   1.000000e+01 1.350000e+01 1.000000e+01
      vertex   0.000000e+00 0.000000e+00 1.000000e+01
      vertex   1.000000e+01 0.000000e+00 1.000000e+01
    endloop
  endfacet
  facet normal -7.071068e-01 0.000000e+00 -7.071068e-01
    outer loop
      vertex   1.000000e+01 1.000000e+01 0.000000e+00
      vertex   0.000000e+00 1.000000e+01 1.000000e+01
      vertex   1.000000e+01 1.350000e+01 0.000000e+00
    endloop
  endfacet
  facet normal -7.071068e-01 0.000000e+00 -7.071068e-01
    outer loop
      vertex   1.000000e+01 1.350000e+01 0.000000e+00
      vertex   0.000000e+00 1.000000e+01 1.000000e+01
      vertex   0.000000e+00 1.350000e+01 1.000000e+01
    endloop
  endfacet
  facet normal 0.000000e+00 1.000000e+00 -0.000000e+00
    outer loop
      vertex   1.000000e+01 1.350000e+01 0.000000e+00
      vertex   0.000000e+00 1.350000e+01 1.000000e+01
      vertex   1.000000e+01 1.350000e+01 1.000000e+01
    endloop
  endfacet
  facet normal 0.000000e+00 1.000000e+00 0.000000e+00
    outer loop
      vertex   1.000000e+01 1.350000e+01 1.000000e+01
      vertex   0.000000e+00 1.350000e+01 1.000000e+01
      vertex   0.000000e+00 1.350000e+01 1.350000e+01
    endloop
  endfacet
  facet normal 0.000000e+00 1.000000e+00 -0.000000e+00
    outer loop
      vertex   1.000000e+01 1.350000e+01 1.000000e+01
      vertex   0.000000e+00 1.350000e+01 1.350000e+01
      vertex   1.000000e+01 1.350000e+01 1.350000e+01
    endloop
  endfacet
  facet normal 0.000000e+00 1.000000e+00 0.000000e+00
    outer loop
      vertex   0.000000e+00 1.000000e+01 1.000000e+01
      vertex   1.000000e+01 1.000000e+01 0.000000e+00
      vertex   0.000000e+00 1.000000e+01 0.000000e+00
    endloop
  endfacet
  facet normal 0.000000e+00 -1.000000e+00 0.000000e+00
    outer loop
      vertex   0.000000e+00 0.000000e+00 1.000000e+01
      vertex   0.000000e+00 0.000000e+00 0.000000e+00
      vertex   1.000000e+01 0.000000e+00 1.000000e+01
    endloop
  endfacet
  facet normal 0.000000e+00 -1.000000e+00 -0.000000e+00
    outer loop
      vertex   1.000000e+01 0.000000e+00 1.000000e+01
      vertex   0.000000e+00 0.000000e+00 0.000000e+00
      vertex   1.000000e+01 0.000000e+00 0.000000e+00
    endloop
  endfacet
  facet normal -1.000000e+00 0.000000e+00 0.000000e+00
    outer loop
      vertex   0.000000e+00 1.000000e+01 0.000000e+00
      vertex   0.000000e+00 0.000000e+00 0.000000e+00
      vertex   0.000000e+00 1.000000e+01 1.000000e+01
    endloop
  endfacet
  facet normal -1.000000e+00 -0.000000e+00 0.000000e+00
    outer loop
      vertex   0.000000e+00 1.000000e+01 1.000000e+01
      vertex   0.000000e+00 0.000000e+00 0.000000e+00
      vertex   0.000000e+00 0.000000e+00 1.000000e+01
    endloop
  endfacet
  facet normal -1.000000e+00 0.000000e+00 0.000000e+00
    outer loop
      vertex   0.000000e+00 1.000000e+01 1.000000e+01
      vertex   0.000000e+00 0.000000e+00 1.000000e+01
      vertex   0.000000e+00 0.000000e+00 1.350000e+01
    endloop
  endfacet
  facet normal -1.000000e+00 0.000000e+00 0.000000e+00
    outer loop
      vertex   0.000000e+00 0.000000e+00 1.350000e+01
      vertex   0.000000e+00 1.350000e+01 1.350000e+01
      vertex   0.000000e+00 1.000000e+01 1.000000e+01
    endloop
  endfacet
  facet normal -1.000000e+00 0.000000e+00 0.000000e+00
    outer loop
      vertex   0.000000e+00 1.000000e+01 1.000000e+01
      vertex   0.000000e+00 1.350000e+01 1.350000e+01
      vertex   0.000000e+00 1.350000e+01 1.000000e+01
    endloop
  endfacet
  facet normal -0.000000e+00 -0.000000e+00 -1.000000e+00
    outer loop
      vertex   1.000000e+01 1.000000e+01 0.000000e+00
      vertex   1.000000e+01 0.000000e+00 0.000000e+00
      vertex   0.000000e+00 1.000000e+01 0.000000e+00
    endloop
  endfacet
  facet normal 0.000000e+00 0.000000e+00 -1.000000e+00
    outer loop
      vertex   0.000000e+00 1.000000e+01 0.000000e+00
      vertex   1.000000e+01 0.000000e+00 0.000000e+00
      vertex   0.000000e+00 0.000000e+00 0.000000e+00
    endloop
  endfacet
  facet normal 1.000000e+00 0.000000e+00 -0.000000e+00
    outer loop
      vertex   1.000000e+01 1.350000e+01 0.000000e+00
      vertex   1.000000e+01 1.350000e+01 1.000000e+01
      vertex   1.000000e+01 1.000000e+01 0.000000e+00
    endloop
  endfacet
  facet normal 1.000000e+00 0.000000e+00 -0.000000e+00
    outer loop
      vertex   1.000000e+01 1.000000e+01 0.000000e+00
      vertex   1.000000e+01 1.350000e+01 1.000000e+01
      vertex   1.000000e+01 0.000000e+00 1.000000e+01
    endloop
  endfacet
  facet normal 1.000000e+00 0.000000e+00 0.000000e+00
    outer loop
      vertex   1.000000e+01 1.000000e+01 0.000000e+00
      vertex   1.000000e+01 0.000000e+00 1.000000e+01
      vertex   1.000000e+01 0.000000e+00 0.000000e+00
    endloop
  endfacet
endsolid
