solid ASCII
  facet normal 1.023809e-01 -3.150898e-01 -9.435235e-01
    outer loop
      vertex   0.000000e+00 0.000000e+00 -1.000000e+01
      vertex   4.253227e+00 -3.090114e+00 -8.506542e+00
      vertex   -1.624556e+00 -4.999953e+00 -8.506544e+00
    endloop
  endfacet
  facet normal 7.002240e-01 -2.680317e-01 -6.616988e-01
    outer loop
      vertex   7.236073e+00 -5.257253e+00 -4.472195e+00
      vertex   4.253227e+00 -3.090114e+00 -8.506542e+00
      vertex   8.506479e+00 0.000000e+00 -5.257359e+00
    endloop
  endfacet
  facet normal -2.680342e-01 -1.947365e-01 -9.435229e-01
    outer loop
      vertex   0.000000e+00 0.000000e+00 -1.000000e+01
      vertex   -1.624556e+00 -4.999953e+00 -8.506544e+00
      vertex   -5.257298e+00 0.000000e+00 -8.506517e+00
    endloop
  endfacet
  facet normal -2.680342e-01 1.947365e-01 -9.435229e-01
    outer loop
      vertex   0.000000e+00 0.000000e+00 -1.000000e+01
      vertex   -5.257298e+00 0.000000e+00 -8.506517e+00
      vertex   -1.624556e+00 4.999953e+00 -8.506544e+00
    endloop
  endfacet
  facet normal 1.023809e-01 3.150898e-01 -9.435235e-01
    outer loop
      vertex   0.000000e+00 0.000000e+00 -1.000000e+01
      vertex   -1.624556e+00 4.999953e+00 -8.506544e+00
      vertex   4.253227e+00 3.090114e+00 -8.506542e+00
    endloop
  endfacet
  facet normal 9.049890e-01 -2.680315e-01 -3.303846e-01
    outer loop
      vertex   7.236073e+00 -5.257253e+00 -4.472195e+00
      vertex   8.506479e+00 0.000000e+00 -5.257359e+00
      vertex   9.510579e+00 -3.090126e+00 0.000000e+00
    endloop
  endfacet
  facet normal 2.474660e-02 -9.435214e-01 -3.303862e-01
    outer loop
      vertex   -2.763880e+00 -8.506492e+00 -4.472198e+00
      vertex   2.628688e+00 -8.090116e+00 -5.257376e+00
      vertex   0.000000e+00 -9.999999e+00 0.000000e+00
    endloop
  endfacet
  facet normal -8.896973e-01 -3.150946e-01 -3.303848e-01
    outer loop
      vertex   -8.944262e+00 0.000000e+00 -4.472156e+00
      vertex   -6.881894e+00 -4.999969e+00 -5.257362e+00
      vertex   -9.510579e+00 -3.090126e+00 0.000000e+00
    endloop
  endfacet
  facet normal -5.746019e-01 7.487835e-01 -3.303876e-01
    outer loop
      vertex   -2.763880e+00 8.506492e+00 -4.472198e+00
      vertex   -6.881894e+00 4.999969e+00 -5.257362e+00
      vertex   -5.877856e+00 8.090167e+00 0.000000e+00
    endloop
  endfacet
  facet normal 5.345760e-01 7.778645e-01 -3.303866e-01
    outer loop
      vertex   7.236073e+00 5.257253e+00 -4.472195e+00
      vertex   2.628688e+00 8.090116e+00 -5.257376e+00
      vertex   5.877856e+00 8.090167e+00 0.000000e+00
    endloop
  endfacet
  facet normal 8.026091e-01 -5.831264e-01 -1.256273e-01
    outer loop
      vertex   7.236073e+00 -5.257253e+00 -4.472195e+00
      vertex   9.510579e+00 -3.090126e+00 0.000000e+00
      vertex   5.877856e+00 -8.090167e+00 0.000000e+00
    endloop
  endfacet
  facet normal -3.065689e-01 -9.435216e-01 -1.256287e-01
    outer loop
      vertex   -2.763880e+00 -8.506492e+00 -4.472198e+00
      vertex   0.000000e+00 -9.999999e+00 0.000000e+00
      vertex   -5.877856e+00 -8.090167e+00 0.000000e+00
    endloop
  endfacet
  facet normal -9.920774e-01 0.000000e+00 -1.256283e-01
    outer loop
      vertex   -8.944262e+00 0.000000e+00 -4.472156e+00
      vertex   -9.510579e+00 -3.090126e+00 0.000000e+00
      vertex   -9.510579e+00 3.090126e+00 0.000000e+00
    endloop
  endfacet
  facet normal -3.065689e-01 9.435216e-01 -1.256287e-01
    outer loop
      vertex   -2.763880e+00 8.506492e+00 -4.472198e+00
      vertex   -5.877856e+00 8.090167e+00 0.000000e+00
      vertex   0.000000e+00 9.999999e+00 0.000000e+00
    endloop
  endfacet
  facet normal 8.026091e-01 5.831264e-01 -1.256273e-01
    outer loop
      vertex   7.236073e+00 5.257253e+00 -4.472195e+00
      vertex   5.877856e+00 8.090167e+00 0.000000e+00
      vertex   9.510579e+00 3.090126e+00 0.000000e+00
    endloop
  endfacet
  facet normal 4.089461e-01 -6.284252e-01 6.616985e-01
    outer loop
      vertex   2.763880e+00 -8.506492e+00 4.472198e+00
      vertex   6.881894e+00 -4.999969e+00 5.257362e+00
      vertex   1.624556e+00 -4.999953e+00 8.506544e+00
    endloop
  endfacet
  facet normal -4.712997e-01 -5.831223e-01 6.616986e-01
    outer loop
      vertex   -7.236073e+00 -5.257253e+00 4.472195e+00
      vertex   -2.628688e+00 -8.090116e+00 5.257376e+00
      vertex   -4.253227e+00 -3.090114e+00 8.506542e+00
    endloop
  endfacet
  facet normal -7.002240e-01 2.680317e-01 6.616988e-01
    outer loop
      vertex   -7.236073e+00 5.257253e+00 4.472195e+00
      vertex   -8.506479e+00 0.000000e+00 5.257359e+00
      vertex   -4.253227e+00 3.090114e+00 8.506542e+00
    endloop
  endfacet
  facet normal 3.853040e-02 7.487790e-01 6.616989e-01
    outer loop
      vertex   2.763880e+00 8.506492e+00 4.472198e+00
      vertex   -2.628688e+00 8.090116e+00 5.257376e+00
      vertex   1.624556e+00 4.999953e+00 8.506544e+00
    endloop
  endfacet
  facet normal 7.240422e-01 1.947361e-01 6.616954e-01
    outer loop
      vertex   8.944262e+00 0.000000e+00 4.472156e+00
      vertex   6.881894e+00 4.999969e+00 5.257362e+00
      vertex   5.257298e+00 0.000000e+00 8.506517e+00
    endloop
  endfacet
  facet normal 2.680342e-01 1.947366e-01 9.435228e-01
    outer loop
      vertex   5.257298e+00 0.000000e+00 8.506517e+00
      vertex   1.624556e+00 4.999953e+00 8.506544e+00
      vertex   0.000000e+00 0.000000e+00 1.000000e+01
    endloop
  endfacet
  facet normal 4.911193e-01 3.568211e-01 7.946575e-01
    outer loop
      vertex   5.257298e+00 0.000000e+00 8.506517e+00
      vertex   6.881894e+00 4.999969e+00 5.257362e+00
      vertex   1.624556e+00 4.999953e+00 8.506544e+00
    endloop
  endfacet
  facet normal 4.089461e-01 6.284252e-01 6.616985e-01
    outer loop
      vertex   6.881894e+00 4.999969e+00 5.257362e+00
      vertex   2.763880e+00 8.506492e+00 4.472198e+00
      vertex   1.624556e+00 4.999953e+00 8.506544e+00
    endloop
  endfacet
  facet normal -1.023809e-01 3.150899e-01 9.435235e-01
    outer loop
      vertex   1.624556e+00 4.999953e+00 8.506544e+00
      vertex   -4.253227e+00 3.090114e+00 8.506542e+00
      vertex   0.000000e+00 0.000000e+00 1.000000e+01
    endloop
  endfacet
  facet normal -1.875942e-01 5.773454e-01 7.946576e-01
    outer loop
      vertex   1.624556e+00 4.999953e+00 8.506544e+00
      vertex   -2.628688e+00 8.090116e+00 5.257376e+00
      vertex   -4.253227e+00 3.090114e+00 8.506542e+00
    endloop
  endfacet
  facet normal -4.712997e-01 5.831223e-01 6.616986e-01
    outer loop
      vertex   -2.628688e+00 8.090116e+00 5.257376e+00
      vertex   -7.236073e+00 5.257253e+00 4.472195e+00
      vertex   -4.253227e+00 3.090114e+00 8.506542e+00
    endloop
  endfacet
  facet normal -3.313046e-01 0.000000e+00 9.435239e-01
    outer loop
      vertex   -4.253227e+00 3.090114e+00 8.506542e+00
      vertex   -4.253227e+00 -3.090114e+00 8.506542e+00
      vertex   0.000000e+00 0.000000e+00 1.000000e+01
    endloop
  endfacet
  facet normal -6.070605e-01 0.000000e+00 7.946556e-01
    outer loop
      vertex   -4.253227e+00 3.090114e+00 8.506542e+00
      vertex   -8.506479e+00 0.000000e+00 5.257359e+00
      vertex   -4.253227e+00 -3.090114e+00 8.506542e+00
    endloop
  endfacet
  facet normal -7.002240e-01 -2.680317e-01 6.616988e-01
    outer loop
      vertex   -8.506479e+00 0.000000e+00 5.257359e+00
      vertex   -7.236073e+00 -5.257253e+00 4.472195e+00
      vertex   -4.253227e+00 -3.090114e+00 8.506542e+00
    endloop
  endfacet
  facet normal -1.023809e-01 -3.150899e-01 9.435235e-01
    outer loop
      vertex   -4.253227e+00 -3.090114e+00 8.506542e+00
      vertex   1.624556e+00 -4.999953e+00 8.506544e+00
      vertex   0.000000e+00 0.000000e+00 1.000000e+01
    endloop
  endfacet
  facet normal -1.875942e-01 -5.773454e-01 7.946576e-01
    outer loop
      vertex   -4.253227e+00 -3.090114e+00 8.506542e+00
      vertex   -2.628688e+00 -8.090116e+00 5.257376e+00
      vertex   1.624556e+00 -4.999953e+00 8.506544e+00
    endloop
  endfacet
  facet normal 3.853040e-02 -7.487790e-01 6.616989e-01
    outer loop
      vertex   -2.628688e+00 -8.090116e+00 5.257376e+00
      vertex   2.763880e+00 -8.506492e+00 4.472198e+00
      vertex   1.624556e+00 -4.999953e+00 8.506544e+00
    endloop
  endfacet
  facet normal 2.680342e-01 -1.947366e-01 9.435228e-01
    outer loop
      vertex   1.624556e+00 -4.999953e+00 8.506544e+00
      vertex   5.257298e+00 0.000000e+00 8.506517e+00
      vertex   0.000000e+00 0.000000e+00 1.000000e+01
    endloop
  endfacet
  facet normal 4.911193e-01 -3.568211e-01 7.946575e-01
    outer loop
      vertex   1.624556e+00 -4.999953e+00 8.506544e+00
      vertex   6.881894e+00 -4.999969e+00 5.257362e+00
      vertex   5.257298e+00 0.000000e+00 8.506517e+00
    endloop
  endfacet
  facet normal 7.240422e-01 -1.947361e-01 6.616954e-01
    outer loop
      vertex   6.881894e+00 -4.999969e+00 5.257362e+00
      vertex   8.944262e+00 0.000000e+00 4.472156e+00
      vertex   5.257298e+00 0.000000e+00 8.506517e+00
    endloop
  endfacet
  facet normal 8.896973e-01 3.150946e-01 3.303848e-01
    outer loop
      vertex   9.510579e+00 3.090126e+00 0.000000e+00
      vertex   6.881894e+00 4.999969e+00 5.257362e+00
      vertex   8.944262e+00 0.000000e+00 4.472156e+00
    endloop
  endfacet
  facet normal 7.946556e-01 5.773479e-01 1.875950e-01
    outer loop
      vertex   9.510579e+00 3.090126e+00 0.000000e+00
      vertex   5.877856e+00 8.090167e+00 0.000000e+00
      vertex   6.881894e+00 4.999969e+00 5.257362e+00
    endloop
  endfacet
  facet normal 5.746019e-01 7.487835e-01 3.303876e-01
    outer loop
      vertex   5.877856e+00 8.090167e+00 0.000000e+00
      vertex   2.763880e+00 8.506492e+00 4.472198e+00
      vertex   6.881894e+00 4.999969e+00 5.257362e+00
    endloop
  endfacet
  facet normal -2.474660e-02 9.435214e-01 3.303862e-01
    outer loop
      vertex   0.000000e+00 9.999999e+00 0.000000e+00
      vertex   -2.628688e+00 8.090116e+00 5.257376e+00
      vertex   2.763880e+00 8.506492e+00 4.472198e+00
    endloop
  endfacet
  facet normal -3.035309e-01 9.341714e-01 1.875974e-01
    outer loop
      vertex   0.000000e+00 9.999999e+00 0.000000e+00
      vertex   -5.877856e+00 8.090167e+00 0.000000e+00
      vertex   -2.628688e+00 8.090116e+00 5.257376e+00
    endloop
  endfacet
  facet normal -5.345760e-01 7.778645e-01 3.303866e-01
    outer loop
      vertex   -5.877856e+00 8.090167e+00 0.000000e+00
      vertex   -7.236073e+00 5.257253e+00 4.472195e+00
      vertex   -2.628688e+00 8.090116e+00 5.257376e+00
    endloop
  endfacet
  facet normal -9.049890e-01 2.680315e-01 3.303846e-01
    outer loop
      vertex   -9.510579e+00 3.090126e+00 0.000000e+00
      vertex   -8.506479e+00 0.000000e+00 5.257359e+00
      vertex   -7.236073e+00 5.257253e+00 4.472195e+00
    endloop
  endfacet
  facet normal -9.822458e-01 0.000000e+00 1.875985e-01
    outer loop
      vertex   -9.510579e+00 3.090126e+00 0.000000e+00
      vertex   -9.510579e+00 -3.090126e+00 0.000000e+00
      vertex   -8.506479e+00 0.000000e+00 5.257359e+00
    endloop
  endfacet
  facet normal -9.049890e-01 -2.680315e-01 3.303846e-01
    outer loop
      vertex   -9.510579e+00 -3.090126e+00 0.000000e+00
      vertex   -7.236073e+00 -5.257253e+00 4.472195e+00
      vertex   -8.506479e+00 0.000000e+00 5.257359e+00
    endloop
  endfacet
  facet normal -5.345760e-01 -7.778645e-01 3.303866e-01
    outer loop
      vertex   -5.877856e+00 -8.090167e+00 0.000000e+00
      vertex   -2.628688e+00 -8.090116e+00 5.257376e+00
      vertex   -7.236073e+00 -5.257253e+00 4.472195e+00
    endloop
  endfacet
  facet normal -3.035309e-01 -9.341714e-01 1.875974e-01
    outer loop
      vertex   -5.877856e+00 -8.090167e+00 0.000000e+00
      vertex   0.000000e+00 -9.999999e+00 0.000000e+00
      vertex   -2.628688e+00 -8.090116e+00 5.257376e+00
    endloop
  endfacet
  facet normal -2.474660e-02 -9.435214e-01 3.303862e-01
    outer loop
      vertex   0.000000e+00 -9.999999e+00 0.000000e+00
      vertex   2.763880e+00 -8.506492e+00 4.472198e+00
      vertex   -2.628688e+00 -8.090116e+00 5.257376e+00
    endloop
  endfacet
  facet normal 5.746019e-01 -7.487835e-01 3.303876e-01
    outer loop
      vertex   5.877856e+00 -8.090167e+00 0.000000e+00
      vertex   6.881894e+00 -4.999969e+00 5.257362e+00
      vertex   2.763880e+00 -8.506492e+00 4.472198e+00
    endloop
  endfacet
  facet normal 7.946556e-01 -5.773479e-01 1.875950e-01
    outer loop
      vertex   5.877856e+00 -8.090167e+00 0.000000e+00
      vertex   9.510579e+00 -3.090126e+00 0.000000e+00
      vertex   6.881894e+00 -4.999969e+00 5.257362e+00
    endloop
  endfacet
  facet normal 8.896973e-01 -3.150946e-01 3.303848e-01
    outer loop
      vertex   9.510579e+00 -3.090126e+00 0.000000e+00
      vertex   8.944262e+00 0.000000e+00 4.472156e+00
      vertex   6.881894e+00 -4.999969e+00 5.257362e+00
    endloop
  endfacet
  facet normal 3.065689e-01 9.435216e-01 1.256287e-01
    outer loop
      vertex   5.877856e+00 8.090167e+00 0.000000e+00
      vertex   0.000000e+00 9.999999e+00 0.000000e+00
      vertex   2.763880e+00 8.506492e+00 4.472198e+00
    endloop
  endfacet
  facet normal 3.035309e-01 9.341714e-01 -1.875974e-01
    outer loop
      vertex   5.877856e+00 8.090167e+00 0.000000e+00
      vertex   2.628688e+00 8.090116e+00 -5.257376e+00
      vertex   0.000000e+00 9.999999e+00 0.000000e+00
    endloop
  endfacet
  facet normal 2.474660e-02 9.435214e-01 -3.303862e-01
    outer loop
      vertex   2.628688e+00 8.090116e+00 -5.257376e+00
      vertex   -2.763880e+00 8.506492e+00 -4.472198e+00
      vertex   0.000000e+00 9.999999e+00 0.000000e+00
    endloop
  endfacet
  facet normal -8.026091e-01 5.831264e-01 1.256273e-01
    outer loop
      vertex   -5.877856e+00 8.090167e+00 0.000000e+00
      vertex   -9.510579e+00 3.090126e+00 0.000000e+00
      vertex   -7.236073e+00 5.257253e+00 4.472195e+00
    endloop
  endfacet
  facet normal -7.946556e-01 5.773479e-01 -1.875950e-01
    outer loop
      vertex   -5.877856e+00 8.090167e+00 0.000000e+00
      vertex   -6.881894e+00 4.999969e+00 -5.257362e+00
      vertex   -9.510579e+00 3.090126e+00 0.000000e+00
    endloop
  endfacet
  facet normal -8.896973e-01 3.150946e-01 -3.303848e-01
    outer loop
      vertex   -6.881894e+00 4.999969e+00 -5.257362e+00
      vertex   -8.944262e+00 0.000000e+00 -4.472156e+00
      vertex   -9.510579e+00 3.090126e+00 0.000000e+00
    endloop
  endfacet
  facet normal -8.026091e-01 -5.831264e-01 1.256273e-01
    outer loop
      vertex   -9.510579e+00 -3.090126e+00 0.000000e+00
      vertex   -5.877856e+00 -8.090167e+00 0.000000e+00
      vertex   -7.236073e+00 -5.257253e+00 4.472195e+00
    endloop
  endfacet
  facet normal -7.946556e-01 -5.773479e-01 -1.875950e-01
    outer loop
      vertex   -9.510579e+00 -3.090126e+00 0.000000e+00
      vertex   -6.881894e+00 -4.999969e+00 -5.257362e+00
      vertex   -5.877856e+00 -8.090167e+00 0.000000e+00
    endloop
  endfacet
  facet normal -5.746019e-01 -7.487835e-01 -3.303876e-01
    outer loop
      vertex   -6.881894e+00 -4.999969e+00 -5.257362e+00
      vertex   -2.763880e+00 -8.506492e+00 -4.472198e+00
      vertex   -5.877856e+00 -8.090167e+00 0.000000e+00
    endloop
  endfacet
  facet normal 3.065689e-01 -9.435216e-01 1.256287e-01
    outer loop
      vertex   0.000000e+00 -9.999999e+00 0.000000e+00
      vertex   5.877856e+00 -8.090167e+00 0.000000e+00
      vertex   2.763880e+00 -8.506492e+00 4.472198e+00
    endloop
  endfacet
  facet normal 3.035309e-01 -9.341714e-01 -1.875974e-01
    outer loop
      vertex   0.000000e+00 -9.999999e+00 0.000000e+00
      vertex   2.628688e+00 -8.090116e+00 -5.257376e+00
      vertex   5.877856e+00 -8.090167e+00 0.000000e+00
    endloop
  endfacet
  facet normal 5.345760e-01 -7.778645e-01 -3.303866e-01
    outer loop
      vertex   2.628688e+00 -8.090116e+00 -5.257376e+00
      vertex   7.236073e+00 -5.257253e+00 -4.472195e+00
      vertex   5.877856e+00 -8.090167e+00 0.000000e+00
    endloop
  endfacet
  facet normal 9.920774e-01 -0.000000e+00 1.256283e-01
    outer loop
      vertex   9.510579e+00 -3.090126e+00 0.000000e+00
      vertex   9.510579e+00 3.090126e+00 0.000000e+00
      vertex   8.944262e+00 0.000000e+00 4.472156e+00
    endloop
  endfacet
  facet normal 9.822458e-01 0.000000e+00 -1.875985e-01
    outer loop
      vertex   9.510579e+00 -3.090126e+00 0.000000e+00
      vertex   8.506479e+00 0.000000e+00 -5.257359e+00
      vertex   9.510579e+00 3.090126e+00 0.000000e+00
    endloop
  endfacet
  facet normal 9.049890e-01 2.680315e-01 -3.303846e-01
    outer loop
      vertex   8.506479e+00 0.000000e+00 -5.257359e+00
      vertex   7.236073e+00 5.257253e+00 -4.472195e+00
      vertex   9.510579e+00 3.090126e+00 0.000000e+00
    endloop
  endfacet
  facet normal 4.712997e-01 5.831223e-01 -6.616986e-01
    outer loop
      vertex   4.253227e+00 3.090114e+00 -8.506542e+00
      vertex   2.628688e+00 8.090116e+00 -5.257376e+00
      vertex   7.236073e+00 5.257253e+00 -4.472195e+00
    endloop
  endfacet
  facet normal 1.875943e-01 5.773454e-01 -7.946576e-01
    outer loop
      vertex   4.253227e+00 3.090114e+00 -8.506542e+00
      vertex   -1.624556e+00 4.999953e+00 -8.506544e+00
      vertex   2.628688e+00 8.090116e+00 -5.257376e+00
    endloop
  endfacet
  facet normal -3.853039e-02 7.487790e-01 -6.616989e-01
    outer loop
      vertex   -1.624556e+00 4.999953e+00 -8.506544e+00
      vertex   -2.763880e+00 8.506492e+00 -4.472198e+00
      vertex   2.628688e+00 8.090116e+00 -5.257376e+00
    endloop
  endfacet
  facet normal -4.089462e-01 6.284252e-01 -6.616984e-01
    outer loop
      vertex   -1.624556e+00 4.999953e+00 -8.506544e+00
      vertex   -6.881894e+00 4.999969e+00 -5.257362e+00
      vertex   -2.763880e+00 8.506492e+00 -4.472198e+00
    endloop
  endfacet
  facet normal -4.911194e-01 3.568211e-01 -7.946575e-01
    outer loop
      vertex   -1.624556e+00 4.999953e+00 -8.506544e+00
      vertex   -5.257298e+00 0.000000e+00 -8.506517e+00
      vertex   -6.881894e+00 4.999969e+00 -5.257362e+00
    endloop
  endfacet
  facet normal -7.240422e-01 1.947361e-01 -6.616954e-01
    outer loop
      vertex   -5.257298e+00 0.000000e+00 -8.506517e+00
      vertex   -8.944262e+00 0.000000e+00 -4.472156e+00
      vertex   -6.881894e+00 4.999969e+00 -5.257362e+00
    endloop
  endfacet
  facet normal -7.240422e-01 -1.947361e-01 -6.616954e-01
    outer loop
      vertex   -5.257298e+00 0.000000e+00 -8.506517e+00
      vertex   -6.881894e+00 -4.999969e+00 -5.257362e+00
      vertex   -8.944262e+00 0.000000e+00 -4.472156e+00
    endloop
  endfacet
  facet normal -4.911194e-01 -3.568211e-01 -7.946575e-01
    outer loop
      vertex   -5.257298e+00 0.000000e+00 -8.506517e+00
      vertex   -1.624556e+00 -4.999953e+00 -8.506544e+00
      vertex   -6.881894e+00 -4.999969e+00 -5.257362e+00
    endloop
  endfacet
  facet normal -4.089462e-01 -6.284252e-01 -6.616984e-01
    outer loop
      vertex   -1.624556e+00 -4.999953e+00 -8.506544e+00
      vertex   -2.763880e+00 -8.506492e+00 -4.472198e+00
      vertex   -6.881894e+00 -4.999969e+00 -5.257362e+00
    endloop
  endfacet
  facet normal 7.002240e-01 2.680317e-01 -6.616988e-01
    outer loop
      vertex   8.506479e+00 0.000000e+00 -5.257359e+00
      vertex   4.253227e+00 3.090114e+00 -8.506542e+00
      vertex   7.236073e+00 5.257253e+00 -4.472195e+00
    endloop
  endfacet
  facet normal 6.070605e-01 0.000000e+00 -7.946556e-01
    outer loop
      vertex   8.506479e+00 0.000000e+00 -5.257359e+00
      vertex   4.253227e+00 -3.090114e+00 -8.506542e+00
      vertex   4.253227e+00 3.090114e+00 -8.506542e+00
    endloop
  endfacet
  facet normal 3.313046e-01 0.000000e+00 -9.435239e-01
    outer loop
      vertex   4.253227e+00 -3.090114e+00 -8.506542e+00
      vertex   0.000000e+00 0.000000e+00 -1.000000e+01
      vertex   4.253227e+00 3.090114e+00 -8.506542e+00
    endloop
  endfacet
  facet normal -3.853039e-02 -7.487790e-01 -6.616989e-01
    outer loop
      vertex   -1.624556e+00 -4.999953e+00 -8.506544e+00
      vertex   2.628688e+00 -8.090116e+00 -5.257376e+00
      vertex   -2.763880e+00 -8.506492e+00 -4.472198e+00
    endloop
  endfacet
  facet normal 1.875943e-01 -5.773454e-01 -7.946576e-01
    outer loop
      vertex   -1.624556e+00 -4.999953e+00 -8.506544e+00
      vertex   4.253227e+00 -3.090114e+00 -8.506542e+00
      vertex   2.628688e+00 -8.090116e+00 -5.257376e+00
    endloop
  endfacet
  facet normal 4.712997e-01 -5.831223e-01 -6.616986e-01
    outer loop
      vertex   4.253227e+00 -3.090114e+00 -8.506542e+00
      vertex   7.236073e+00 -5.257253e+00 -4.472195e+00
      vertex   2.628688e+00 -8.090116e+00 -5.257376e+00
    endloop
  endfacet
endsolid
